# xmcd
#
# Track frame offsets: 
#        150
#        16782
#        35131
#        52382
#        68901
#        84196
#        100021
#        115281
#        131770
#        149425
#        167974
#        186503
#        204108
#        227853
#        249480
#        261697
#        266122
#        285316
#        305819
#        328745
#
# Disc length: 4559 seconds
#
# Revision: 0
# Processed by: cddbd v1.5.2PL0 Copyright (c) Steve Scherf et al.
# Submitted via: ExactAudioCopy v0.99pb5
#
DISCID=3811cd14
DTITLE=Carmen Consoli - Per niente stanca CD2
DYEAR=2010
DGENRE=
TTITLE0=AAA Cercasi
TTITLE1=Parole di burro
TTITLE2=Contessa miseria
TTITLE3=Quello che sento
TTITLE4=Pioggia d'aprile
TTITLE5=Senza farsi male
TTITLE6=Matilde odiava i gatti
TTITLE7=Confusa e felice
TTITLE8=Madre terra
TTITLE9=Amore di plastica
TTITLE10=Anna Magnani
TTITLE11=Venere
TTITLE12=Quattordici luglio
TTITLE13='A finestra
TTITLE14=Lingua a sonagli
TTITLE15=Bonsai #2
TTITLE16=Orfeo
TTITLE17=Signor tentenna
TTITLE18=Fino all'ultimo
TTITLE19=Je suis venue te dire que je m'en vais
EXTD=
EXTT0=
EXTT1=
EXTT2=
EXTT3=
EXTT4=
EXTT5=
EXTT6=
EXTT7=
EXTT8=
EXTT9=
EXTT10=
EXTT11=
EXTT12=
EXTT13=
EXTT14=
EXTT15=
EXTT16=
EXTT17=
EXTT18=
EXTT19=
PLAYORDER=
